<svg width="239" height="158" viewBox="0 0 239 158" fill="none" xmlns="http://www.w3.org/2000/svg">
<g clip-path="url(#clip0_325_4517)">
<path d="M98.9217 90.5787C97.0468 89.215 95.7202 87.2326 95.1789 84.9857C94.6376 82.7388 94.9169 80.3736 95.9668 78.3126C96.1807 77.8963 96.841 78.2073 96.6269 78.6242C95.6456 80.5416 95.3857 82.7448 95.8941 84.8361C96.4024 86.9274 97.6455 88.7691 99.399 90.0287C99.7797 90.3029 99.3003 90.8514 98.9217 90.5787Z" fill="#CCCCCC"/>
<path d="M94.1794 109.958C98.8776 109.276 103.144 106.856 106.129 103.183C106.425 102.819 106.977 103.294 106.682 103.658C103.569 107.474 99.1235 109.983 94.2329 110.683C93.7667 110.75 93.7157 110.024 94.1794 109.958V109.958Z" fill="#CCCCCC"/>
<path d="M113.195 74.8849C113.81 75.563 114.585 76.0785 115.45 76.3851C116.314 76.6918 117.242 76.78 118.149 76.6419C118.615 76.5696 118.665 77.2948 118.203 77.3665C117.2 77.5145 116.175 77.4159 115.219 77.0792C114.263 76.7424 113.404 76.1779 112.718 75.435C112.647 75.3703 112.604 75.2814 112.597 75.1862C112.59 75.091 112.62 74.9967 112.68 74.9225C112.744 74.85 112.834 74.8054 112.93 74.7983C113.026 74.7913 113.122 74.8224 113.195 74.8849Z" fill="#CCCCCC"/>
<path d="M158.803 112.159C145.493 109.51 131.246 111.075 118.914 116.765C116.248 117.996 113.651 119.475 111.49 121.477C109.327 123.48 107.947 125.894 107.076 128.684C106.281 131.235 105.764 133.936 104.359 136.25C102.878 138.689 100.437 140.177 97.6571 140.726C94.256 141.398 90.815 140.814 87.47 140.127C83.756 139.364 79.9104 138.512 76.1478 139.465C75.6919 139.581 75.5384 138.87 75.9936 138.755C82.54 137.097 88.909 140.64 95.4687 140.269C98.5296 140.096 101.557 139.005 103.372 136.427C104.959 134.172 105.495 131.388 106.278 128.798C107.1 126.079 108.327 123.646 110.329 121.591C112.377 119.489 114.921 117.906 117.544 116.613C123.459 113.697 129.953 111.819 136.476 110.877C143.973 109.793 151.601 109.993 159.03 111.468C159.49 111.56 159.259 112.25 158.803 112.159V112.159Z" fill="#CCCCCC"/>
<path d="M122.824 114.705C122.153 112.493 122.293 110.116 123.221 107.998C124.149 105.88 125.803 104.158 127.889 103.142C128.312 102.937 128.651 103.581 128.227 103.786C126.283 104.729 124.742 106.332 123.883 108.307C123.023 110.281 122.901 112.496 123.538 114.552C123.676 114.999 122.962 115.15 122.824 114.705Z" fill="#CCCCCC"/>
<path d="M107.309 127.339C111.473 129.607 116.344 130.231 120.951 129.086C121.407 128.972 121.561 129.682 121.105 129.796C116.309 130.979 111.241 130.319 106.913 127.949C106.5 127.723 106.899 127.114 107.309 127.339Z" fill="#CCCCCC"/>
<path d="M143.72 110.723C143.8 111.633 144.107 112.509 144.612 113.271C145.116 114.034 145.804 114.66 146.612 115.093C147.027 115.314 146.628 115.923 146.216 115.704C145.325 115.221 144.567 114.529 144.008 113.687C143.448 112.846 143.104 111.881 143.006 110.877C142.989 110.783 143.008 110.686 143.06 110.606C143.112 110.525 143.193 110.468 143.286 110.445C143.38 110.425 143.479 110.443 143.56 110.495C143.642 110.547 143.699 110.629 143.72 110.723Z" fill="#CCCCCC"/>
<path d="M111.445 128.857C107.95 112.045 103.58 106.44 103.58 106.44L101.911 105.152L99.904 103.601L99.9137 103.402L99.4376 103.241L99.3258 103.154L99.1425 103.014L99.113 103.046L99.0508 103.11L89.9674 100.038L78.4437 96.1446L73.1074 89.2449C72.2383 88.1212 71.1194 87.213 69.8385 86.5914C68.5575 85.9699 67.1492 85.6519 65.7239 85.6624L48.6817 85.7878C46.3774 85.8048 44.1628 86.6786 42.4733 88.2375L31.2717 98.5734L13.8175 106.866L13.788 106.836L13.6048 106.967L10.9079 108.249L11.0192 108.826L9.35004 110.024C9.35004 110.024 4.98076 115.239 1.48532 130.883C0.596125 134.864 0.158429 143.402 0.000443971 153.924C-0.0074916 154.457 0.0910248 154.985 0.290262 155.479C0.4895 155.973 0.785485 156.423 1.16101 156.802C1.53653 157.181 1.9841 157.483 2.47769 157.688C2.97127 157.894 3.50104 158 4.03617 158H97.2627V158H108.899C109.433 158 109.963 157.894 110.456 157.688C110.949 157.483 111.397 157.182 111.772 156.803C112.147 156.425 112.444 155.975 112.643 155.482C112.843 154.988 112.942 154.46 112.934 153.928C112.78 142.479 112.342 133.174 111.445 128.857Z" fill="#3F3D56"/>
<path d="M123.407 14.6616C119.779 14.6616 116.301 16.0949 113.736 18.6462C111.172 21.1975 109.731 24.6578 109.731 28.2658C109.731 31.8739 111.172 35.3342 113.736 37.8854C116.301 40.4367 119.779 41.87 123.407 41.87H225.324C228.951 41.87 232.43 40.4367 234.994 37.8854C237.559 35.3342 239 31.8739 239 28.2658C239 24.6578 237.559 21.1975 234.994 18.6462C232.43 16.0949 228.951 14.6616 225.324 14.6616H123.407Z" fill="#E5E5E5"/>
<path d="M123.407 17.415C120.514 17.415 117.739 18.5583 115.693 20.5932C113.648 22.6282 112.498 25.3882 112.498 28.266C112.498 31.1439 113.648 33.9038 115.693 35.9388C117.739 37.9737 120.514 39.117 123.407 39.117H225.324C228.217 39.117 230.992 37.9737 233.037 35.9388C235.083 33.9038 236.232 31.1439 236.232 28.266C236.232 25.3882 235.083 22.6282 233.037 20.5932C230.992 18.5583 228.217 17.415 225.324 17.415H123.407Z" fill="white"/>
<path d="M59.8791 79.2935C72.2099 79.2935 82.2061 69.3498 82.2061 57.0835C82.2061 44.8173 72.2099 34.8735 59.8791 34.8735C47.5483 34.8735 37.5521 44.8173 37.5521 57.0835C37.5521 69.3498 47.5483 79.2935 59.8791 79.2935Z" fill="#9E616A"/>
<path d="M54.1674 78.206C54.0721 77.9971 53.9769 77.7875 53.8821 77.5771C53.9186 77.5783 53.9548 77.5835 53.9914 77.5845L54.1674 78.206Z" fill="#2F2E41"/>
<path d="M36.9313 35.8835C38.0605 34.9874 39.3803 34.1629 40.8241 34.2093C42.2678 34.2555 43.7319 35.5527 43.4328 36.9585C46.0847 32.2877 50.3057 28.6953 55.3549 26.8119C60.4041 24.9285 65.9589 24.8744 71.0442 26.6592C74.6325 27.9185 78.1515 30.438 78.9757 34.1333C79.1874 35.0819 79.2328 36.122 79.8282 36.8923C80.5789 37.8635 82.0152 38.0832 83.1979 37.7415C83.2098 37.7381 83.2216 37.7347 83.2333 37.7312C83.4331 37.6633 83.6488 37.6566 83.8525 37.712C84.0561 37.7674 84.2384 37.8823 84.3757 38.0418C84.513 38.2014 84.599 38.3983 84.6226 38.607C84.6461 38.8157 84.6062 39.0266 84.508 39.2125L83.4927 41.0962C84.7726 41.38 86.1024 41.3518 87.369 41.0142C87.5794 40.9593 87.8017 40.9705 88.0055 41.0462C88.2092 41.122 88.3844 41.2586 88.507 41.4374C88.6296 41.6161 88.6936 41.8282 88.6903 42.0445C88.6869 42.2609 88.6164 42.4709 88.4883 42.6458C85.1404 47.2181 79.5472 50.1707 73.8394 50.136C69.7827 50.1114 65.6843 48.7206 61.7362 49.6486C60.2088 50.0076 58.7816 50.7023 57.5593 51.6815C56.337 52.6608 55.3506 53.8998 54.6725 55.3078C53.9944 56.7157 53.6417 58.2568 53.6404 59.818C53.6391 61.3792 53.9892 62.9209 54.665 64.3299C53.4521 63.0102 51.1075 63.3227 49.8668 64.6166C48.6262 65.9105 48.305 67.8417 48.43 69.6255C48.6212 72.3538 49.6957 74.9245 50.8286 77.4266C41.3309 77.1292 32.3477 70.5016 29.3239 61.5377C26.2875 52.5362 29.4698 41.8046 36.9313 35.8835Z" fill="#2F2E41"/>
<path opacity="0.2" d="M21.9755 123.781L28.2377 157.674L31.9952 158L21.9755 123.781Z" fill="#CCCCCC"/>
<path opacity="0.2" d="M90.955 121.226L84.6928 157.65L80.9353 158L90.955 121.226Z" fill="#CCCCCC"/>
<path d="M42.2724 24.4767C41.0717 24.9755 39.8188 24.4289 39.2934 23.1772C38.76 21.9063 39.2582 20.6162 40.4781 20.1095C41.6982 19.6027 42.9288 20.1506 43.4708 21.442C44.0048 22.714 43.5119 23.9619 42.2724 24.4767ZM39.9724 17.608L39.0177 18.0046C38.7792 18.1025 38.5125 18.1077 38.2702 18.0194C38.028 17.931 37.828 17.7554 37.7097 17.5273L37.6625 17.4354C36.6352 15.5926 36.5176 13.3528 37.3147 10.7819C38.0531 8.47567 38.3599 6.85371 37.743 5.3843C37.0299 3.68538 35.5071 3.15319 33.5651 3.92413C32.8119 4.23698 32.5723 4.23199 31.9796 4.8169C31.8506 4.94567 31.697 5.0473 31.5277 5.11573C31.3584 5.18415 31.177 5.21796 30.9943 5.21516C30.8177 5.21309 30.6434 5.17566 30.4816 5.10511C30.3199 5.03456 30.1741 4.93233 30.0529 4.80451C29.8194 4.55819 29.6886 4.23292 29.6869 3.89439C29.6852 3.55586 29.8127 3.2293 30.0436 2.98064C31.0399 1.94322 32.2415 1.12249 33.5726 0.570233C37.7451 -1.16289 39.8455 1.39582 40.8067 3.68563C41.7468 5.92532 41.2179 8.00339 40.3682 10.6947C39.6561 12.931 39.6976 14.5881 40.5065 16.2357C40.5649 16.3603 40.5974 16.4953 40.602 16.6326C40.6066 16.77 40.5833 16.9069 40.5334 17.0351C40.4836 17.1632 40.4081 17.2801 40.3117 17.3785C40.2153 17.477 40.0999 17.555 39.9724 17.608L39.9724 17.608Z" fill="#1F65F2"/>
<path d="M145.919 34.7544H125.641C125.577 34.7549 125.513 34.7426 125.453 34.7184C125.393 34.6942 125.339 34.6585 125.294 34.6133C125.248 34.5682 125.212 34.5145 125.187 34.4553C125.162 34.3961 125.149 34.3327 125.149 34.2686C125.149 34.2045 125.162 34.1411 125.187 34.0819C125.212 34.0227 125.248 33.969 125.294 33.9239C125.339 33.8787 125.393 33.843 125.453 33.8188C125.513 33.7945 125.577 33.7823 125.641 33.7827H145.919C146.048 33.7836 146.171 33.8352 146.262 33.9262C146.353 34.0172 146.404 34.1403 146.404 34.2686C146.404 34.3969 146.353 34.52 146.262 34.611C146.171 34.702 146.048 34.7536 145.919 34.7544Z" fill="#F2AB1F"/>
<path d="M171.642 34.9161H151.365C151.3 34.9165 151.236 34.9043 151.177 34.88C151.117 34.8558 151.063 34.8201 151.017 34.7749C150.971 34.7298 150.935 34.6761 150.91 34.6169C150.886 34.5577 150.873 34.4943 150.873 34.4302C150.873 34.3661 150.886 34.3027 150.91 34.2435C150.935 34.1843 150.971 34.1306 151.017 34.0855C151.063 34.0403 151.117 34.0046 151.177 33.9804C151.236 33.9562 151.3 33.9439 151.365 33.9443H171.642C171.707 33.9439 171.771 33.9562 171.83 33.9804C171.89 34.0046 171.944 34.0403 171.99 34.0855C172.036 34.1306 172.072 34.1843 172.097 34.2435C172.122 34.3027 172.134 34.3661 172.134 34.4302C172.134 34.4943 172.122 34.5577 172.097 34.6169C172.072 34.6761 172.036 34.7298 171.99 34.7749C171.944 34.8201 171.89 34.8558 171.83 34.88C171.771 34.9043 171.707 34.9165 171.642 34.9161Z" fill="#F2AB1F"/>
<path d="M197.366 35.0782H177.088C176.959 35.0773 176.836 35.0257 176.745 34.9347C176.654 34.8437 176.603 34.7206 176.603 34.5923C176.603 34.464 176.654 34.3409 176.745 34.2499C176.836 34.1589 176.959 34.1073 177.088 34.1065H197.366C197.43 34.106 197.494 34.1183 197.554 34.1425C197.614 34.1667 197.668 34.2024 197.714 34.2476C197.759 34.2927 197.796 34.3465 197.82 34.4056C197.845 34.4648 197.858 34.5282 197.858 34.5923C197.858 34.6564 197.845 34.7199 197.82 34.779C197.796 34.8382 197.759 34.8919 197.714 34.937C197.668 34.9822 197.614 35.0179 197.554 35.0421C197.494 35.0664 197.43 35.0786 197.366 35.0782H197.366Z" fill="#F2AB1F"/>
<path d="M223.09 35.2403H202.812C202.683 35.2394 202.56 35.1878 202.469 35.0968C202.378 35.0058 202.327 34.8827 202.327 34.7544C202.327 34.6261 202.378 34.503 202.469 34.412C202.56 34.321 202.683 34.2694 202.812 34.2686H223.09C223.219 34.2694 223.342 34.321 223.433 34.412C223.524 34.503 223.575 34.6261 223.575 34.7544C223.575 34.8827 223.524 35.0058 223.433 35.0968C223.342 35.1878 223.219 35.2394 223.09 35.2403Z" fill="#F2AB1F"/>
<path d="M135.735 30.2827C137.817 30.2827 139.504 28.6042 139.504 26.5337C139.504 24.4632 137.817 22.7847 135.735 22.7847C133.654 22.7847 131.967 24.4632 131.967 26.5337C131.967 28.6042 133.654 30.2827 135.735 30.2827Z" fill="#F9DB84"/>
<path d="M161.614 30.2827C163.696 30.2827 165.383 28.6042 165.383 26.5337C165.383 24.4632 163.696 22.7847 161.614 22.7847C159.533 22.7847 157.846 24.4632 157.846 26.5337C157.846 28.6042 159.533 30.2827 161.614 30.2827Z" fill="#F9DB84"/>
<path d="M187.493 30.2827C189.575 30.2827 191.262 28.6042 191.262 26.5337C191.262 24.4632 189.575 22.7847 187.493 22.7847C185.412 22.7847 183.724 24.4632 183.724 26.5337C183.724 28.6042 185.412 30.2827 187.493 30.2827Z" fill="#F9DB84"/>
<path d="M213.372 30.2827C215.454 30.2827 217.141 28.6042 217.141 26.5337C217.141 24.4632 215.454 22.7847 213.372 22.7847C211.291 22.7847 209.604 24.4632 209.604 26.5337C209.604 28.6042 211.291 30.2827 213.372 30.2827Z" fill="#F9DB84"/>
</g>
<defs>
<clipPath id="clip0_325_4517">
<rect width="239" height="158" fill="white"/>
</clipPath>
</defs>
</svg>
