<svg width="1022" height="1022" viewBox="0 0 1022 1022" fill="none" xmlns="http://www.w3.org/2000/svg">
<path d="M52.9725 392.74C51.5025 383.92 50.1375 374.995 48.93 365.808C48.3525 361.45 47.775 356.988 47.25 352.525H46.725C45.465 352.525 44.2575 352.525 42.9975 352.525C39.6512 352.268 36.3423 351.652 33.1275 350.688C23.6105 347.889 15.2486 342.098 9.28152 334.174C3.31442 326.249 0.0597464 316.612 0 306.693V277.608C0.258455 267.921 3.57025 258.563 9.46272 250.869C15.3552 243.176 23.5272 237.541 32.8125 234.768C31.29 213.768 30.555 192.243 30.555 169.668C30.555 100.105 57.5925 58.5777 102.9 58.5777H474.81C486.989 58.4047 498.751 63.0047 507.582 71.3935C516.412 79.7823 521.609 91.2938 522.06 103.465V132.55C521.732 144.862 516.609 156.559 507.783 165.149C498.957 173.74 487.126 178.545 474.81 178.54H153.563C153.563 195.76 154.56 213.663 155.978 232.878H414.803C426.715 233.074 438.096 237.843 446.589 246.199C455.082 254.555 460.036 265.857 460.425 277.765V307.795C460.023 319.699 455.065 330.994 446.575 339.347C438.085 347.7 426.711 352.474 414.803 352.683H169.313C170.1 366.49 171.308 382.398 171.728 385.81C171.728 388.068 172.305 390.273 172.62 392.478C172.62 392.478 172.62 392.793 172.62 392.898L214.62 511.968C214.591 512.088 214.591 512.214 214.62 512.335C252.053 581.583 306.6 643.06 354.113 688.945C406.908 739.123 464.119 784.439 525.053 824.343V964.623C525.053 964.623 409.553 908.238 318.518 824.08C274.694 784.758 233.433 742.672 194.985 698.08C147.601 642.896 110.187 579.882 84.42 511.863L52.9725 392.74Z" fill="#1F65F2"/>
<path d="M981.383 268.996C972.599 260.018 962.089 252.91 950.486 248.101C938.883 243.292 926.427 240.881 913.868 241.013H684.548C670.74 241.013 660.398 238.441 656.25 233.978C652.103 229.516 652.208 218.806 652.628 211.298C652.628 208.778 652.628 206.573 652.628 204.841C652.628 182.213 652.628 176.806 695.363 176.806H965.58C977.805 176.674 989.504 171.809 998.217 163.233C1006.93 154.657 1011.98 143.037 1012.31 130.816V101.888C1011.9 89.7953 1006.78 78.3391 998.058 69.9563C989.332 61.5736 977.68 56.9256 965.58 57.0009H652.628C584.903 57.0009 529.778 109.973 529.778 175.073V183.736C529.463 225.736 529.043 288.736 568.575 328.741C589.26 349.741 617.558 360.241 652.575 360.241H895.598C897.538 369.913 898.278 379.788 897.803 389.641C893.918 612.503 525.053 824.341 525.053 824.341V964.621C525.053 964.621 677.565 881.566 788.655 788.641C944.055 658.441 1020.13 528.188 1021.07 390.376C1021.34 338.138 1007.27 295.036 981.383 268.996Z" fill="#001635"/>
<path d="M171.619 392.32H415.954C427.837 392.526 439.188 397.278 447.674 405.598C456.16 413.918 461.135 425.174 461.577 437.05V467.027C461.188 478.94 456.236 490.248 447.744 498.613C439.253 506.977 427.872 511.758 415.954 511.967H213.777L171.619 392.32Z" fill="#1F65F2"/>
<path d="M42.9979 352.368C39.6516 352.11 36.3427 351.494 33.1279 350.53L42.9979 352.368Z" fill="#1F65F2"/>
<path d="M48.9308 365.808C50.1383 374.995 51.5033 383.92 52.9733 392.74C46.9916 392.886 41.0272 393.447 35.1233 394.42C25.8296 397.133 17.6336 402.719 11.7107 410.377C5.78769 418.036 2.44199 427.373 2.15332 437.05V465.925C2.23281 477.232 6.44643 488.118 13.9996 496.532C21.5527 504.946 31.9234 510.306 43.1558 511.6H84.5783C110.346 579.619 147.759 642.633 195.143 697.818L48.9308 365.808Z" fill="#1F65F2"/>
</svg>
