<svg width="158" height="141" viewBox="0 0 158 141" fill="none" xmlns="http://www.w3.org/2000/svg">
<path d="M155.358 54.1901L79.131 0.672363L2.12561 53.6914L77.9825 85.6827L155.358 54.1901Z" fill="white"/>
<path d="M2.41939 53.6426H2.4743L33.9565 67.0684L77.0307 85.4377C77.199 85.5084 77.3797 85.5453 77.5622 85.5463C77.7448 85.5472 77.9258 85.5122 78.0948 85.4432L122.535 67.03L154.79 53.6645L154.84 53.6426H154.895C155.404 53.6431 155.891 53.8453 156.251 54.2047C156.611 54.5641 156.814 55.0515 156.814 55.5597V138.82C156.814 139.329 156.611 139.816 156.251 140.175C155.891 140.535 155.404 140.737 154.895 140.738H2.41939C1.91044 140.737 1.4225 140.535 1.06262 140.175C0.702739 139.816 0.500321 139.329 0.499756 138.82V55.5597C0.500321 55.0515 0.702739 54.5641 1.06262 54.2047C1.4225 53.8453 1.91044 53.6431 2.41939 53.6426Z" fill="white"/>
<path d="M2.28256 54.1903C2.33854 54.1903 2.39317 54.1732 2.43909 54.1412L78.2815 1.39023C78.5123 1.23044 78.7866 1.14507 79.0674 1.14554C79.3482 1.14602 79.6222 1.23234 79.8525 1.39291L155.149 54.1407C155.208 54.1821 155.282 54.1983 155.353 54.1857C155.425 54.1731 155.488 54.1326 155.53 54.0732C155.572 54.0139 155.588 53.9404 155.576 53.869C155.563 53.7975 155.523 53.7339 155.464 53.6921L80.1674 0.944378C79.845 0.719614 79.4614 0.598793 79.0683 0.598147C78.6751 0.597502 78.2911 0.717053 77.968 0.940757L2.12564 53.6916C2.07773 53.7249 2.04174 53.7726 2.02288 53.8278C2.00402 53.883 2.00329 53.9428 2.02079 53.9984C2.0383 54.0541 2.07314 54.1027 2.12023 54.1372C2.16731 54.1717 2.22418 54.1903 2.28257 54.1902L2.28256 54.1903Z" fill="#3F3D56"/>
<path d="M150.846 56.06L78.9927 2.87646L6.59485 59.8442L75.2908 100.516L112.587 92.0258L150.846 56.06Z" fill="#F9DB84"/>
<path d="M109.439 125.637H144.936C145.375 125.637 145.797 125.463 146.108 125.153C146.419 124.843 146.594 124.422 146.595 123.983C146.595 123.544 146.421 123.123 146.111 122.812C145.801 122.501 145.38 122.326 144.941 122.325H109.439C108.999 122.325 108.577 122.499 108.266 122.809C107.955 123.119 107.78 123.54 107.78 123.979C107.779 124.417 107.953 124.839 108.263 125.15C108.573 125.461 108.994 125.636 109.434 125.637H109.439Z" fill="#1F65F2"/>
<path d="M132.2 118.516H144.936C145.375 118.516 145.797 118.342 146.108 118.032C146.419 117.722 146.594 117.301 146.595 116.862C146.595 116.423 146.421 116.002 146.111 115.691C145.801 115.38 145.38 115.205 144.941 115.204H132.2C131.761 115.203 131.339 115.378 131.028 115.688C130.717 115.998 130.542 116.418 130.541 116.857C130.54 117.296 130.714 117.718 131.024 118.029C131.335 118.34 131.756 118.515 132.195 118.516H132.2Z" fill="#1F65F2"/>
<path d="M77.9824 85.6828C78.2522 85.6831 78.5194 85.6308 78.7692 85.5289L123.083 67.1653V9.68428C123.083 9.17599 122.88 8.6887 122.52 8.32928C122.16 7.96987 121.673 7.76768 121.164 7.76709H36.1504C35.6415 7.76768 35.1536 7.96987 34.7937 8.32928C34.4338 8.6887 34.2314 9.17599 34.2308 9.68428V67.2054L34.3141 67.241L77.1718 85.5199C77.4284 85.6276 77.704 85.683 77.9824 85.6828Z" fill="white"/>
<path d="M77.1179 85.6455L34.0937 67.2956V9.684C34.0943 9.1394 34.3112 8.6173 34.6968 8.23221C35.0824 7.84712 35.6052 7.6305 36.1505 7.62988H121.164C121.709 7.6305 122.232 7.84712 122.617 8.23221C123.003 8.6173 123.22 9.1394 123.22 9.684V67.2565L78.8215 85.6554C78.2747 85.8774 77.6621 85.8738 77.1179 85.6455H77.1179ZM122.672 9.684C122.671 9.28464 122.512 8.90176 122.23 8.61937C121.947 8.33697 121.563 8.17812 121.164 8.17765H36.1504C35.7506 8.17812 35.3672 8.33697 35.0844 8.61937C34.8017 8.90176 34.6426 9.28464 34.6421 9.684V66.934L77.3322 85.1413C77.7411 85.3128 78.2013 85.3155 78.6123 85.149L122.672 66.8906L122.672 9.684Z" fill="#3F3D56"/>
<path d="M0.911163 55.5597V138.82C0.911728 139.329 1.11416 139.816 1.47405 140.175C1.83393 140.535 2.32187 140.737 2.83082 140.738H155.306C155.815 140.737 156.303 140.535 156.663 140.175C157.023 139.816 157.225 139.329 157.226 138.82V55.5597C157.225 55.0515 157.023 54.5641 156.663 54.2047C156.303 53.8453 155.815 53.6431 155.306 53.6426H155.251L155.202 53.6645L122.946 67.03L78.5062 85.4432C78.3372 85.5122 78.1562 85.5472 77.9736 85.5462C77.7911 85.5453 77.6104 85.5084 77.4421 85.4377L34.368 67.0683L2.88573 53.6426H2.83082C2.32187 53.6431 1.83393 53.8453 1.47405 54.2047C1.11416 54.5641 0.911728 55.0515 0.911163 55.5597ZM1.45965 55.5597C1.46046 55.2062 1.59772 54.8666 1.84288 54.6115C2.08804 54.3564 2.42224 54.2056 2.77593 54.1903L34.368 67.6627L77.2255 85.9417C77.7021 86.1415 78.2385 86.1444 78.7173 85.9499L122.946 67.6216L155.358 54.1903C155.712 54.2045 156.047 54.355 156.293 54.6102C156.539 54.8654 156.677 55.2056 156.677 55.5598V138.82C156.677 139.184 156.532 139.532 156.275 139.789C156.018 140.045 155.67 140.19 155.306 140.19H2.83082C2.4672 140.19 2.11853 140.045 1.86141 139.789C1.60429 139.532 1.45979 139.184 1.45965 138.82V55.5597Z" fill="#3F3D56"/>
<path d="M43.5927 29.2532H73.7586C74.3405 29.2532 74.8985 29.0224 75.3099 28.6115C75.7213 28.2006 75.9525 27.6433 75.9525 27.0622C75.9525 26.4811 75.7213 25.9238 75.3099 25.5128C74.8985 25.1019 74.3405 24.8711 73.7586 24.8711H43.5927C43.0108 24.8711 42.4528 25.1019 42.0413 25.5128C41.6299 25.9238 41.3988 26.4811 41.3988 27.0622C41.3988 27.6433 41.6299 28.2006 42.0413 28.6115C42.4528 29.0224 43.0108 29.2532 43.5927 29.2532Z" fill="#1F65F2"/>
<path d="M43.6108 19.9417H58.1453C58.7271 19.9417 59.2852 19.7109 59.6966 19.3C60.108 18.889 60.3392 18.3317 60.3392 17.7506C60.3392 17.1695 60.108 16.6122 59.6966 16.2013C59.2852 15.7904 58.7271 15.5596 58.1453 15.5596H43.6108C43.0289 15.5596 42.4709 15.7904 42.0594 16.2013C41.648 16.6122 41.4169 17.1695 41.4169 17.7506C41.4169 18.3317 41.648 18.889 42.0594 19.3C42.4709 19.7109 43.0289 19.9417 43.6108 19.9417Z" fill="#1F65F2"/>
<path d="M56.0952 51.1644H102.167C102.749 51.1644 103.307 50.9335 103.718 50.5226C104.13 50.1117 104.361 49.5544 104.361 48.9733C104.361 48.3922 104.13 47.8349 103.718 47.424C103.307 47.0131 102.749 46.7822 102.167 46.7822H56.0952C55.5133 46.7822 54.9553 47.0131 54.5439 47.424C54.1324 47.8349 53.9013 48.3922 53.9013 48.9733C53.9013 49.5544 54.1324 50.1117 54.5439 50.5226C54.9553 50.9335 55.5133 51.1644 56.0952 51.1644Z" fill="#CCCCCC"/>
<path d="M56.0952 61.2982H102.167C102.749 61.2982 103.307 61.0673 103.718 60.6564C104.13 60.2455 104.361 59.6882 104.361 59.1071C104.361 58.526 104.13 57.9687 103.718 57.5578C103.307 57.1469 102.749 56.916 102.167 56.916H56.0952C55.5133 56.916 54.9553 57.1469 54.5439 57.5578C54.1324 57.9687 53.9013 58.526 53.9013 59.1071C53.9013 59.6882 54.1324 60.2455 54.5439 60.6564C54.9553 61.0673 55.5133 61.2982 56.0952 61.2982Z" fill="#CCCCCC"/>
</svg>
